# xmcd
#
# Track frame offsets:
#	150
#	12280
#	32859
#	55561
#	76269
#	91772
#	112189
#	130885
#
# Disc length: 2116 seconds
#
# Revision: 1
# Processed by: cddbd v1.5.2PL0 Copyright (c) Steve Scherf et al.
# Submitted via: audiograbber 1.83.01
#
DISCID=5a084208
DTITLE=Oli Brown - Open Road
DYEAR=2007
DGENRE=Blues
TTITLE0=Played By The Devil
TTITLE1=Open Road
TTITLE2=Stone Cold
TTITLE3=New Groove
TTITLE4=She's Deadly
TTITLE5=Shade Of Grey
TTITLE6=Psycho
TTITLE7=Missing You
EXTD=www.olibrownband.co.uk
EXTT0=
EXTT1=
EXTT2=
EXTT3=
EXTT4=
EXTT5=
EXTT6=
EXTT7=
PLAYORDER=
